<svg id="SvgjsSvg1026" width="288" height="288" xmlns="http://www.w3.org/2000/svg" version="1.1" xmlns:xlink="http://www.w3.org/1999/xlink" xmlns:svgjs="http://svgjs.com/svgjs"><defs id="SvgjsDefs1027"></defs><g id="SvgjsG1028"><svg xmlns="http://www.w3.org/2000/svg" viewBox="0 0 64 64" width="288" height="288"><path d="M60.6 5.7c-2.2-2.2-5.2-3.4-8.3-3.4-2.7 0-5.2.9-7.2 2.5-.4.3-.5.8-.3 1.2 3 7.2 8.2 12.4 15.5 15.5.4.2.9.1 1.2-.3 1.6-2 2.5-4.6 2.5-7.2 0-3.2-1.2-6.1-3.4-8.3zM43.7 8.6c-.4-.8-1.5-.7-1.8 0-.8 1.5-1.2 3.1-1.3 4.8-.2 3.3 1.1 6.6 3.4 8.9 2.4 2.4 5.6 3.6 8.9 3.4 1.8-.1 3.8-.9 5.4-1.9.7-.4.7-1.5-.1-1.8-6.3-3.1-11.4-7.3-14.5-13.4zm-1.2 15.1c-1.6-1.6-2.5-4-3-6.3-.2-.8-1.2-1.1-1.8-.5l-19.4 22c-2.6 3-2.9 7.2-.6 9.5s6.5 2.1 9.5-.5l22-19.4c.6-.6.4-1.6-.5-1.8-2.2-.5-4.5-1.3-6.2-3zm-6.2 7.7-4.5 4.5c-.2.2-.5.3-.7.3-.3 0-.5-.1-.7-.3-.4-.4-.4-1.1 0-1.5l4.5-4.5c.4-.4 1.1-.4 1.5 0 .3.5.3 1.1-.1 1.5zM16.6 50.2l-.8-.1c-2.1.6-3.8 2.3-4.4 4.5-.8 2.9-3.1 5.2-6 6l-4.2 1.1H.9c-.5 0-.9-.3-1-.8s.2-1.1.7-1.3l4.2-1.1c2.2-.6 4-2.3 4.6-4.6.7-2.8 2.9-5 5.6-5.9.3.6.8 1.2 1.3 1.7.1.3.2.4.3.5z" fill="#ffffff" class="color000 svgShape"></path></svg></g></svg>